# xmcd CD database file generated by OrangeCD 5.2
#
# Track frame offsets:
#	150
#	39288
#	83032
#	123726
#	148803
#	188421
#	233500
#	260612
#
# Disc length: 3864 seconds
#
# Revision: 0
# Processed by: cddbd v1.5.1PL0 Copyright (c) Steve Scherf et al.
# Submitted via: OrangeCD 5.2
#
DISCID=630f1608
DTITLE=Freddie King - Tulsa, Oklahoma [CDOne) 
DYEAR=1975
DGENRE=Blues
TTITLE0=Big Legged Woman
TTITLE1=Hey Baby > TV Mama
TTITLE2=Yonder Wall
TTITLE3=Woman Across The River
TTITLE4=San-Ho-Zay
TTITLE5=Have You Ever Loved a Woman >
TTITLE6=Rock Me Baby > Have You Ever Loved a Woman
TTITLE7=Goin' Down (fade at the end)
EXTD=
EXTT0=
EXTT1=
EXTT2=
EXTT3=
EXTT4=
EXTT5=
EXTT6=
EXTT7=
PLAYORDER=
